<mxfile host="Electron" agent="Mozilla/5.0 (Windows NT 10.0; Win64; x64) AppleWebKit/537.36 (KHTML, like Gecko) draw.io/24.4.13 Chrome/124.0.6367.207 Electron/30.0.6 Safari/537.36" modified="2025-02-27T19:35:35.449Z" etag="OK8UiHUpU_QhV2101OL1" version="24.4.13" type="device">
  <diagram name="Page-1" id="VEpktLTUOzU55hSO5b2p">
    <mxGraphModel dx="1850" dy="1021" grid="0" gridSize="10" guides="1" tooltips="1" connect="1" arrows="1" fold="1" page="0" pageScale="1" pageWidth="850" pageHeight="1100" math="0" shadow="0">
      <root>
        <mxCell id="0" />
        <mxCell id="1" parent="0" />
        <mxCell id="inwRCEsUA1p_P1p4tt-E-176" value="&amp;lt;&amp;lt;SMC&amp;gt;&amp;gt;&lt;br&gt;Working_Order" style="swimlane;fontStyle=0;childLayout=stackLayout;horizontal=1;startSize=26;fillColor=#dae8fc;horizontalStack=0;resizeParent=1;resizeParentMax=0;resizeLast=0;collapsible=1;marginBottom=0;whiteSpace=wrap;html=1;strokeColor=#6c8ebf;" parent="1" vertex="1">
          <mxGeometry x="408" y="408" width="270" height="104" as="geometry">
            <mxRectangle x="457" y="396" width="113" height="26" as="alternateBounds" />
          </mxGeometry>
        </mxCell>
        <mxCell id="inwRCEsUA1p_P1p4tt-E-177" value="+ workingOrderId" style="text;strokeColor=none;fillColor=none;align=left;verticalAlign=top;spacingLeft=4;spacingRight=4;overflow=hidden;rotatable=0;points=[[0,0.5],[1,0.5]];portConstraint=eastwest;whiteSpace=wrap;html=1;" parent="inwRCEsUA1p_P1p4tt-E-176" vertex="1">
          <mxGeometry y="26" width="270" height="26" as="geometry" />
        </mxCell>
        <mxCell id="inwRCEsUA1p_P1p4tt-E-185" value="&lt;span style=&quot;font-weight: normal;&quot;&gt;+ incidence: &amp;lt;&amp;lt;Incidents&amp;gt;&amp;gt;&lt;/span&gt;" style="text;strokeColor=none;fillColor=none;align=left;verticalAlign=top;spacingLeft=4;spacingRight=4;overflow=hidden;rotatable=0;points=[[0,0.5],[1,0.5]];portConstraint=eastwest;whiteSpace=wrap;html=1;fontStyle=1" parent="inwRCEsUA1p_P1p4tt-E-176" vertex="1">
          <mxGeometry y="52" width="270" height="26" as="geometry" />
        </mxCell>
        <mxCell id="inwRCEsUA1p_P1p4tt-E-179" value="&lt;span style=&quot;font-style: normal;&quot;&gt;+ status&lt;/span&gt;" style="text;strokeColor=none;fillColor=none;align=left;verticalAlign=top;spacingLeft=4;spacingRight=4;overflow=hidden;rotatable=0;points=[[0,0.5],[1,0.5]];portConstraint=eastwest;whiteSpace=wrap;html=1;fontStyle=2" parent="inwRCEsUA1p_P1p4tt-E-176" vertex="1">
          <mxGeometry y="78" width="270" height="26" as="geometry" />
        </mxCell>
        <mxCell id="inwRCEsUA1p_P1p4tt-E-190" value="&amp;lt;&amp;lt;SMC&amp;gt;&amp;gt;&lt;br&gt;Production_Plan" style="swimlane;fontStyle=0;childLayout=stackLayout;horizontal=1;startSize=26;fillColor=#dae8fc;horizontalStack=0;resizeParent=1;resizeParentMax=0;resizeLast=0;collapsible=1;marginBottom=0;whiteSpace=wrap;html=1;strokeColor=#6c8ebf;" parent="1" vertex="1">
          <mxGeometry x="436.5" y="334" width="213" height="52" as="geometry">
            <mxRectangle x="455" y="250" width="120" height="26" as="alternateBounds" />
          </mxGeometry>
        </mxCell>
        <mxCell id="s8H81WCbA1d05yf4hdJD-1" value="&lt;i&gt;+ &lt;/i&gt;ShopfloorSchedule" style="text;strokeColor=none;fillColor=none;align=left;verticalAlign=top;spacingLeft=4;spacingRight=4;overflow=hidden;rotatable=0;points=[[0,0.5],[1,0.5]];portConstraint=eastwest;whiteSpace=wrap;html=1;" parent="inwRCEsUA1p_P1p4tt-E-190" vertex="1">
          <mxGeometry y="26" width="213" height="26" as="geometry" />
        </mxCell>
        <mxCell id="inwRCEsUA1p_P1p4tt-E-193" value="&amp;lt;&amp;lt;SMC&amp;gt;&amp;gt;&lt;br&gt;Incident" style="swimlane;fontStyle=0;childLayout=stackLayout;horizontal=1;startSize=26;fillColor=#dae8fc;horizontalStack=0;resizeParent=1;resizeParentMax=0;resizeLast=0;collapsible=1;marginBottom=0;whiteSpace=wrap;html=1;strokeColor=#6c8ebf;" parent="1" vertex="1">
          <mxGeometry x="-505" y="171" width="270" height="260" as="geometry">
            <mxRectangle x="-12" y="187.5" width="90" height="41" as="alternateBounds" />
          </mxGeometry>
        </mxCell>
        <mxCell id="inwRCEsUA1p_P1p4tt-E-194" value="+ incidentId" style="text;strokeColor=none;fillColor=none;align=left;verticalAlign=top;spacingLeft=4;spacingRight=4;overflow=hidden;rotatable=0;points=[[0,0.5],[1,0.5]];portConstraint=eastwest;whiteSpace=wrap;html=1;" parent="inwRCEsUA1p_P1p4tt-E-193" vertex="1">
          <mxGeometry y="26" width="270" height="26" as="geometry" />
        </mxCell>
        <mxCell id="inwRCEsUA1p_P1p4tt-E-195" value="+ ressource: &amp;lt;Ressource&amp;gt;" style="text;strokeColor=none;fillColor=none;align=left;verticalAlign=top;spacingLeft=4;spacingRight=4;overflow=hidden;rotatable=0;points=[[0,0.5],[1,0.5]];portConstraint=eastwest;whiteSpace=wrap;html=1;fontStyle=0" parent="inwRCEsUA1p_P1p4tt-E-193" vertex="1">
          <mxGeometry y="52" width="270" height="26" as="geometry" />
        </mxCell>
        <mxCell id="inwRCEsUA1p_P1p4tt-E-197" value="+ creationDate" style="text;strokeColor=none;fillColor=none;align=left;verticalAlign=top;spacingLeft=4;spacingRight=4;overflow=hidden;rotatable=0;points=[[0,0.5],[1,0.5]];portConstraint=eastwest;whiteSpace=wrap;html=1;fontStyle=0" parent="inwRCEsUA1p_P1p4tt-E-193" vertex="1">
          <mxGeometry y="78" width="270" height="26" as="geometry" />
        </mxCell>
        <mxCell id="inwRCEsUA1p_P1p4tt-E-198" value="+ finishingDate" style="text;strokeColor=none;fillColor=none;align=left;verticalAlign=top;spacingLeft=4;spacingRight=4;overflow=hidden;rotatable=0;points=[[0,0.5],[1,0.5]];portConstraint=eastwest;whiteSpace=wrap;html=1;fontStyle=0" parent="inwRCEsUA1p_P1p4tt-E-193" vertex="1">
          <mxGeometry y="104" width="270" height="26" as="geometry" />
        </mxCell>
        <mxCell id="inwRCEsUA1p_P1p4tt-E-199" value="+ fixer: &amp;lt;Employee&amp;gt;" style="text;strokeColor=none;fillColor=none;align=left;verticalAlign=top;spacingLeft=4;spacingRight=4;overflow=hidden;rotatable=0;points=[[0,0.5],[1,0.5]];portConstraint=eastwest;whiteSpace=wrap;html=1;fontStyle=0" parent="inwRCEsUA1p_P1p4tt-E-193" vertex="1">
          <mxGeometry y="130" width="270" height="26" as="geometry" />
        </mxCell>
        <mxCell id="inwRCEsUA1p_P1p4tt-E-200" value="+ severity" style="text;strokeColor=none;fillColor=none;align=left;verticalAlign=top;spacingLeft=4;spacingRight=4;overflow=hidden;rotatable=0;points=[[0,0.5],[1,0.5]];portConstraint=eastwest;whiteSpace=wrap;html=1;fontStyle=0" parent="inwRCEsUA1p_P1p4tt-E-193" vertex="1">
          <mxGeometry y="156" width="270" height="26" as="geometry" />
        </mxCell>
        <mxCell id="inwRCEsUA1p_P1p4tt-E-327" value="+ failureCost" style="text;strokeColor=none;fillColor=none;align=left;verticalAlign=top;spacingLeft=4;spacingRight=4;overflow=hidden;rotatable=0;points=[[0,0.5],[1,0.5]];portConstraint=eastwest;whiteSpace=wrap;html=1;fontStyle=0" parent="inwRCEsUA1p_P1p4tt-E-193" vertex="1">
          <mxGeometry y="182" width="270" height="26" as="geometry" />
        </mxCell>
        <mxCell id="inwRCEsUA1p_P1p4tt-E-196" value="+ operator: &amp;lt;Employee&amp;gt;" style="text;strokeColor=none;fillColor=none;align=left;verticalAlign=top;spacingLeft=4;spacingRight=4;overflow=hidden;rotatable=0;points=[[0,0.5],[1,0.5]];portConstraint=eastwest;whiteSpace=wrap;html=1;fontStyle=0" parent="inwRCEsUA1p_P1p4tt-E-193" vertex="1">
          <mxGeometry y="208" width="270" height="26" as="geometry" />
        </mxCell>
        <mxCell id="inwRCEsUA1p_P1p4tt-E-201" value="+ status" style="text;strokeColor=none;fillColor=none;align=left;verticalAlign=top;spacingLeft=4;spacingRight=4;overflow=hidden;rotatable=0;points=[[0,0.5],[1,0.5]];portConstraint=eastwest;whiteSpace=wrap;html=1;fontStyle=0" parent="inwRCEsUA1p_P1p4tt-E-193" vertex="1">
          <mxGeometry y="234" width="270" height="26" as="geometry" />
        </mxCell>
        <mxCell id="inwRCEsUA1p_P1p4tt-E-204" value="&amp;lt;&amp;lt;SMC&amp;gt;&amp;gt;&lt;br&gt;Operation" style="swimlane;fontStyle=0;childLayout=stackLayout;horizontal=1;startSize=26;fillColor=#dae8fc;horizontalStack=0;resizeParent=1;resizeParentMax=0;resizeLast=0;collapsible=1;marginBottom=0;whiteSpace=wrap;html=1;strokeColor=#6c8ebf;" parent="1" vertex="1">
          <mxGeometry x="408" y="530" width="270" height="156" as="geometry">
            <mxRectangle x="465" y="491" width="88" height="26" as="alternateBounds" />
          </mxGeometry>
        </mxCell>
        <mxCell id="inwRCEsUA1p_P1p4tt-E-205" value="+ operationId" style="text;strokeColor=none;fillColor=none;align=left;verticalAlign=top;spacingLeft=4;spacingRight=4;overflow=hidden;rotatable=0;points=[[0,0.5],[1,0.5]];portConstraint=eastwest;whiteSpace=wrap;html=1;" parent="inwRCEsUA1p_P1p4tt-E-204" vertex="1">
          <mxGeometry y="26" width="270" height="26" as="geometry" />
        </mxCell>
        <mxCell id="inwRCEsUA1p_P1p4tt-E-208" value="+ setting_time" style="text;strokeColor=none;fillColor=none;align=left;verticalAlign=top;spacingLeft=4;spacingRight=4;overflow=hidden;rotatable=0;points=[[0,0.5],[1,0.5]];portConstraint=eastwest;whiteSpace=wrap;html=1;fontStyle=0" parent="inwRCEsUA1p_P1p4tt-E-204" vertex="1">
          <mxGeometry y="52" width="270" height="26" as="geometry" />
        </mxCell>
        <mxCell id="inwRCEsUA1p_P1p4tt-E-209" value="+ operation_time" style="text;strokeColor=none;fillColor=none;align=left;verticalAlign=top;spacingLeft=4;spacingRight=4;overflow=hidden;rotatable=0;points=[[0,0.5],[1,0.5]];portConstraint=eastwest;whiteSpace=wrap;html=1;fontStyle=0" parent="inwRCEsUA1p_P1p4tt-E-204" vertex="1">
          <mxGeometry y="78" width="270" height="26" as="geometry" />
        </mxCell>
        <mxCell id="inwRCEsUA1p_P1p4tt-E-206" value="+ operation_type" style="text;strokeColor=none;fillColor=none;align=left;verticalAlign=top;spacingLeft=4;spacingRight=4;overflow=hidden;rotatable=0;points=[[0,0.5],[1,0.5]];portConstraint=eastwest;whiteSpace=wrap;html=1;fontStyle=0" parent="inwRCEsUA1p_P1p4tt-E-204" vertex="1">
          <mxGeometry y="104" width="270" height="26" as="geometry" />
        </mxCell>
        <mxCell id="ebb0PjJFtciFHu0TMh4M-29" value="+ incidence: &amp;lt;&amp;lt;Incidence&amp;gt;&amp;gt;" style="text;strokeColor=none;fillColor=none;align=left;verticalAlign=top;spacingLeft=4;spacingRight=4;overflow=hidden;rotatable=0;points=[[0,0.5],[1,0.5]];portConstraint=eastwest;whiteSpace=wrap;html=1;fontStyle=0" parent="inwRCEsUA1p_P1p4tt-E-204" vertex="1">
          <mxGeometry y="130" width="270" height="26" as="geometry" />
        </mxCell>
        <mxCell id="inwRCEsUA1p_P1p4tt-E-277" value="&amp;lt;&amp;lt;SMC&amp;gt;&amp;gt;&lt;br&gt;Employee" style="swimlane;fontStyle=0;childLayout=stackLayout;horizontal=1;startSize=26;fillColor=#dae8fc;horizontalStack=0;resizeParent=1;resizeParentMax=0;resizeLast=0;collapsible=1;marginBottom=0;whiteSpace=wrap;html=1;strokeColor=#6c8ebf;" parent="1" vertex="1">
          <mxGeometry x="-122" y="-61" width="230" height="182" as="geometry">
            <mxRectangle x="-290" y="11" width="88" height="26" as="alternateBounds" />
          </mxGeometry>
        </mxCell>
        <mxCell id="inwRCEsUA1p_P1p4tt-E-278" value="+ employeeId" style="text;strokeColor=none;fillColor=none;align=left;verticalAlign=top;spacingLeft=4;spacingRight=4;overflow=hidden;rotatable=0;points=[[0,0.5],[1,0.5]];portConstraint=eastwest;whiteSpace=wrap;html=1;" parent="inwRCEsUA1p_P1p4tt-E-277" vertex="1">
          <mxGeometry y="26" width="230" height="26" as="geometry" />
        </mxCell>
        <mxCell id="inwRCEsUA1p_P1p4tt-E-279" value="+ competence" style="text;strokeColor=none;fillColor=none;align=left;verticalAlign=top;spacingLeft=4;spacingRight=4;overflow=hidden;rotatable=0;points=[[0,0.5],[1,0.5]];portConstraint=eastwest;whiteSpace=wrap;html=1;" parent="inwRCEsUA1p_P1p4tt-E-277" vertex="1">
          <mxGeometry y="52" width="230" height="26" as="geometry" />
        </mxCell>
        <mxCell id="inwRCEsUA1p_P1p4tt-E-280" value="+ certificate" style="text;strokeColor=none;fillColor=none;align=left;verticalAlign=top;spacingLeft=4;spacingRight=4;overflow=hidden;rotatable=0;points=[[0,0.5],[1,0.5]];portConstraint=eastwest;whiteSpace=wrap;html=1;fontStyle=0" parent="inwRCEsUA1p_P1p4tt-E-277" vertex="1">
          <mxGeometry y="78" width="230" height="26" as="geometry" />
        </mxCell>
        <mxCell id="inwRCEsUA1p_P1p4tt-E-281" value="+ shiftplan&lt;div&gt;&lt;br&gt;&lt;/div&gt;&lt;div&gt;&lt;br&gt;&lt;/div&gt;&lt;div&gt;&lt;br&gt;&lt;/div&gt;&lt;div&gt;&lt;br&gt;&lt;/div&gt;" style="text;strokeColor=none;fillColor=none;align=left;verticalAlign=top;spacingLeft=4;spacingRight=4;overflow=hidden;rotatable=0;points=[[0,0.5],[1,0.5]];portConstraint=eastwest;whiteSpace=wrap;html=1;fontStyle=0" parent="inwRCEsUA1p_P1p4tt-E-277" vertex="1">
          <mxGeometry y="104" width="230" height="26" as="geometry" />
        </mxCell>
        <mxCell id="inwRCEsUA1p_P1p4tt-E-282" value="+ status&amp;nbsp;" style="text;strokeColor=none;fillColor=none;align=left;verticalAlign=top;spacingLeft=4;spacingRight=4;overflow=hidden;rotatable=0;points=[[0,0.5],[1,0.5]];portConstraint=eastwest;whiteSpace=wrap;html=1;fontStyle=0" parent="inwRCEsUA1p_P1p4tt-E-277" vertex="1">
          <mxGeometry y="130" width="230" height="26" as="geometry" />
        </mxCell>
        <mxCell id="inwRCEsUA1p_P1p4tt-E-283" value="+ responsibilitiy" style="text;strokeColor=none;fillColor=none;align=left;verticalAlign=top;spacingLeft=4;spacingRight=4;overflow=hidden;rotatable=0;points=[[0,0.5],[1,0.5]];portConstraint=eastwest;whiteSpace=wrap;html=1;fontStyle=0" parent="inwRCEsUA1p_P1p4tt-E-277" vertex="1">
          <mxGeometry y="156" width="230" height="26" as="geometry" />
        </mxCell>
        <mxCell id="inwRCEsUA1p_P1p4tt-E-328" value="&amp;lt;&amp;lt;SMC&amp;gt;&amp;gt;&lt;br&gt;DiagnosisResult" style="swimlane;fontStyle=0;childLayout=stackLayout;horizontal=1;startSize=26;fillColor=#dae8fc;horizontalStack=0;resizeParent=1;resizeParentMax=0;resizeLast=0;collapsible=1;marginBottom=0;whiteSpace=wrap;html=1;strokeColor=#6c8ebf;" parent="1" vertex="1">
          <mxGeometry x="-578" y="469.5" width="210" height="104" as="geometry">
            <mxRectangle x="-259" y="499" width="122" height="41" as="alternateBounds" />
          </mxGeometry>
        </mxCell>
        <mxCell id="inwRCEsUA1p_P1p4tt-E-329" value="+ diagnosisId" style="text;strokeColor=none;fillColor=none;align=left;verticalAlign=top;spacingLeft=4;spacingRight=4;overflow=hidden;rotatable=0;points=[[0,0.5],[1,0.5]];portConstraint=eastwest;whiteSpace=wrap;html=1;" parent="inwRCEsUA1p_P1p4tt-E-328" vertex="1">
          <mxGeometry y="26" width="210" height="26" as="geometry" />
        </mxCell>
        <mxCell id="inwRCEsUA1p_P1p4tt-E-331" value="+ reports" style="text;strokeColor=none;fillColor=none;align=left;verticalAlign=top;spacingLeft=4;spacingRight=4;overflow=hidden;rotatable=0;points=[[0,0.5],[1,0.5]];portConstraint=eastwest;whiteSpace=wrap;html=1;fontStyle=0" parent="inwRCEsUA1p_P1p4tt-E-328" vertex="1">
          <mxGeometry y="52" width="210" height="26" as="geometry" />
        </mxCell>
        <mxCell id="inwRCEsUA1p_P1p4tt-E-332" value="+ kpi" style="text;strokeColor=none;fillColor=none;align=left;verticalAlign=top;spacingLeft=4;spacingRight=4;overflow=hidden;rotatable=0;points=[[0,0.5],[1,0.5]];portConstraint=eastwest;whiteSpace=wrap;html=1;" parent="inwRCEsUA1p_P1p4tt-E-328" vertex="1">
          <mxGeometry y="78" width="210" height="26" as="geometry" />
        </mxCell>
        <mxCell id="inwRCEsUA1p_P1p4tt-E-434" value="&amp;lt;&amp;lt;SMC&amp;gt;&amp;gt;&lt;br&gt;Machine" style="swimlane;fontStyle=0;childLayout=stackLayout;horizontal=1;startSize=26;fillColor=#dae8fc;horizontalStack=0;resizeParent=1;resizeParentMax=0;resizeLast=0;collapsible=1;marginBottom=0;whiteSpace=wrap;html=1;strokeColor=#6c8ebf;" parent="1" vertex="1">
          <mxGeometry x="-21.5" y="497" width="186" height="104" as="geometry">
            <mxRectangle x="31.5" y="498" width="80" height="26" as="alternateBounds" />
          </mxGeometry>
        </mxCell>
        <mxCell id="inwRCEsUA1p_P1p4tt-E-435" value="&lt;span style=&quot;font-weight: normal;&quot;&gt;+ machine_id&lt;/span&gt;" style="text;strokeColor=none;fillColor=none;align=left;verticalAlign=top;spacingLeft=4;spacingRight=4;overflow=hidden;rotatable=0;points=[[0,0.5],[1,0.5]];portConstraint=eastwest;whiteSpace=wrap;html=1;fontStyle=1" parent="inwRCEsUA1p_P1p4tt-E-434" vertex="1">
          <mxGeometry y="26" width="186" height="26" as="geometry" />
        </mxCell>
        <mxCell id="inwRCEsUA1p_P1p4tt-E-440" value="+ executionState" style="text;strokeColor=none;fillColor=none;align=left;verticalAlign=top;spacingLeft=4;spacingRight=4;overflow=hidden;rotatable=0;points=[[0,0.5],[1,0.5]];portConstraint=eastwest;whiteSpace=wrap;html=1;fontStyle=0" parent="inwRCEsUA1p_P1p4tt-E-434" vertex="1">
          <mxGeometry y="52" width="186" height="26" as="geometry" />
        </mxCell>
        <mxCell id="60YrhDgfy5IzH0sJCQRh-9" value="+ &lt;span style=&quot;&quot;&gt;toolLifetime&lt;/span&gt;" style="text;strokeColor=none;fillColor=none;align=left;verticalAlign=top;spacingLeft=4;spacingRight=4;overflow=hidden;rotatable=0;points=[[0,0.5],[1,0.5]];portConstraint=eastwest;whiteSpace=wrap;html=1;fontStyle=0" parent="inwRCEsUA1p_P1p4tt-E-434" vertex="1">
          <mxGeometry y="78" width="186" height="26" as="geometry" />
        </mxCell>
        <mxCell id="inwRCEsUA1p_P1p4tt-E-460" value="&amp;lt;&amp;lt;SMC&amp;gt;&amp;gt;&lt;br&gt;TransportSystem" style="swimlane;fontStyle=0;childLayout=stackLayout;horizontal=1;startSize=26;fillColor=#dae8fc;horizontalStack=0;resizeParent=1;resizeParentMax=0;resizeLast=0;collapsible=1;marginBottom=0;whiteSpace=wrap;html=1;strokeColor=#6c8ebf;" parent="1" vertex="1">
          <mxGeometry x="182" y="260" width="152" height="104" as="geometry">
            <mxRectangle x="290" y="309.5" width="126" height="41" as="alternateBounds" />
          </mxGeometry>
        </mxCell>
        <mxCell id="inwRCEsUA1p_P1p4tt-E-461" value="+ transportSystemId" style="text;strokeColor=none;fillColor=none;align=left;verticalAlign=top;spacingLeft=4;spacingRight=4;overflow=hidden;rotatable=0;points=[[0,0.5],[1,0.5]];portConstraint=eastwest;whiteSpace=wrap;html=1;" parent="inwRCEsUA1p_P1p4tt-E-460" vertex="1">
          <mxGeometry y="26" width="152" height="26" as="geometry" />
        </mxCell>
        <mxCell id="inwRCEsUA1p_P1p4tt-E-548" value="+ transportTime" style="text;strokeColor=none;fillColor=none;align=left;verticalAlign=top;spacingLeft=4;spacingRight=4;overflow=hidden;rotatable=0;points=[[0,0.5],[1,0.5]];portConstraint=eastwest;whiteSpace=wrap;html=1;fontStyle=0" parent="inwRCEsUA1p_P1p4tt-E-460" vertex="1">
          <mxGeometry y="52" width="152" height="26" as="geometry" />
        </mxCell>
        <mxCell id="inwRCEsUA1p_P1p4tt-E-549" value="+ routing" style="text;strokeColor=none;fillColor=none;align=left;verticalAlign=top;spacingLeft=4;spacingRight=4;overflow=hidden;rotatable=0;points=[[0,0.5],[1,0.5]];portConstraint=eastwest;whiteSpace=wrap;html=1;fontStyle=0" parent="inwRCEsUA1p_P1p4tt-E-460" vertex="1">
          <mxGeometry y="78" width="152" height="26" as="geometry" />
        </mxCell>
        <mxCell id="inwRCEsUA1p_P1p4tt-E-491" value="&amp;lt;&amp;lt;SMC&amp;gt;&amp;gt;&lt;br&gt;MaterialStorageSystem" style="swimlane;fontStyle=0;childLayout=stackLayout;horizontal=1;startSize=26;fillColor=#dae8fc;horizontalStack=0;resizeParent=1;resizeParentMax=0;resizeLast=0;collapsible=1;marginBottom=0;whiteSpace=wrap;html=1;strokeColor=#6c8ebf;" parent="1" vertex="1">
          <mxGeometry x="186" y="419" width="178" height="78" as="geometry">
            <mxRectangle x="257" y="436" width="166" height="26" as="alternateBounds" />
          </mxGeometry>
        </mxCell>
        <mxCell id="inwRCEsUA1p_P1p4tt-E-492" value="+ storage_id" style="text;strokeColor=none;fillColor=none;align=left;verticalAlign=top;spacingLeft=4;spacingRight=4;overflow=hidden;rotatable=0;points=[[0,0.5],[1,0.5]];portConstraint=eastwest;whiteSpace=wrap;html=1;" parent="inwRCEsUA1p_P1p4tt-E-491" vertex="1">
          <mxGeometry y="26" width="178" height="26" as="geometry" />
        </mxCell>
        <mxCell id="inwRCEsUA1p_P1p4tt-E-498" value="+ availableSlots" style="text;strokeColor=none;fillColor=none;align=left;verticalAlign=top;spacingLeft=4;spacingRight=4;overflow=hidden;rotatable=0;points=[[0,0.5],[1,0.5]];portConstraint=eastwest;whiteSpace=wrap;html=1;fontStyle=0" parent="inwRCEsUA1p_P1p4tt-E-491" vertex="1">
          <mxGeometry y="52" width="178" height="26" as="geometry" />
        </mxCell>
        <mxCell id="inwRCEsUA1p_P1p4tt-E-521" style="rounded=0;orthogonalLoop=1;jettySize=auto;html=1;endArrow=diamond;endFill=1;" parent="1" source="inwRCEsUA1p_P1p4tt-E-176" target="inwRCEsUA1p_P1p4tt-E-190" edge="1">
          <mxGeometry relative="1" as="geometry" />
        </mxCell>
        <mxCell id="inwRCEsUA1p_P1p4tt-E-556" value="" style="rounded=0;orthogonalLoop=1;jettySize=auto;html=1;endArrow=diamond;endFill=1;edgeStyle=elbowEdgeStyle;" parent="1" source="inwRCEsUA1p_P1p4tt-E-204" target="inwRCEsUA1p_P1p4tt-E-176" edge="1">
          <mxGeometry relative="1" as="geometry">
            <mxPoint x="704.5" y="760.8305084745759" as="sourcePoint" />
            <mxPoint x="679.4999999999995" y="761.1694915254236" as="targetPoint" />
            <Array as="points" />
          </mxGeometry>
        </mxCell>
        <mxCell id="60YrhDgfy5IzH0sJCQRh-14" value="&amp;lt;&amp;lt;Submodel&amp;gt;&amp;gt;&lt;br&gt;Resilience" style="swimlane;fontStyle=0;childLayout=stackLayout;horizontal=1;startSize=26;fillColor=#dae8fc;horizontalStack=0;resizeParent=1;resizeParentMax=0;resizeLast=0;collapsible=1;marginBottom=0;whiteSpace=wrap;html=1;strokeColor=#6c8ebf;" parent="1" vertex="1">
          <mxGeometry x="205" y="121" width="140" height="52" as="geometry" />
        </mxCell>
        <mxCell id="60YrhDgfy5IzH0sJCQRh-33" value="&amp;lt;&amp;lt;SMC&amp;gt;&amp;gt;&lt;br&gt;Scenario&amp;nbsp;" style="swimlane;fontStyle=0;childLayout=stackLayout;horizontal=1;startSize=26;fillColor=#dae8fc;horizontalStack=0;resizeParent=1;resizeParentMax=0;resizeLast=0;collapsible=1;marginBottom=0;whiteSpace=wrap;html=1;strokeColor=#6c8ebf;" parent="1" vertex="1">
          <mxGeometry x="-257" y="469.5" width="171" height="156" as="geometry">
            <mxRectangle x="-35" y="470" width="90" height="41" as="alternateBounds" />
          </mxGeometry>
        </mxCell>
        <mxCell id="60YrhDgfy5IzH0sJCQRh-34" value="+ scenarioId" style="text;strokeColor=none;fillColor=none;align=left;verticalAlign=top;spacingLeft=4;spacingRight=4;overflow=hidden;rotatable=0;points=[[0,0.5],[1,0.5]];portConstraint=eastwest;whiteSpace=wrap;html=1;fontStyle=0" parent="60YrhDgfy5IzH0sJCQRh-33" vertex="1">
          <mxGeometry y="26" width="171" height="26" as="geometry" />
        </mxCell>
        <mxCell id="60YrhDgfy5IzH0sJCQRh-43" value="+ scenarioMasterPlan" style="text;strokeColor=none;fillColor=none;align=left;verticalAlign=top;spacingLeft=4;spacingRight=4;overflow=hidden;rotatable=0;points=[[0,0.5],[1,0.5]];portConstraint=eastwest;whiteSpace=wrap;html=1;fontStyle=0" parent="60YrhDgfy5IzH0sJCQRh-33" vertex="1">
          <mxGeometry y="52" width="171" height="26" as="geometry" />
        </mxCell>
        <mxCell id="60YrhDgfy5IzH0sJCQRh-42" value="+ scenarioProbability" style="text;strokeColor=none;fillColor=none;align=left;verticalAlign=top;spacingLeft=4;spacingRight=4;overflow=hidden;rotatable=0;points=[[0,0.5],[1,0.5]];portConstraint=eastwest;whiteSpace=wrap;html=1;fontStyle=0" parent="60YrhDgfy5IzH0sJCQRh-33" vertex="1">
          <mxGeometry y="78" width="171" height="26" as="geometry" />
        </mxCell>
        <mxCell id="60YrhDgfy5IzH0sJCQRh-41" value="+ penaltyDescription" style="text;strokeColor=none;fillColor=none;align=left;verticalAlign=top;spacingLeft=4;spacingRight=4;overflow=hidden;rotatable=0;points=[[0,0.5],[1,0.5]];portConstraint=eastwest;whiteSpace=wrap;html=1;fontStyle=0" parent="60YrhDgfy5IzH0sJCQRh-33" vertex="1">
          <mxGeometry y="104" width="171" height="26" as="geometry" />
        </mxCell>
        <mxCell id="60YrhDgfy5IzH0sJCQRh-36" value="+ penalty" style="text;strokeColor=none;fillColor=none;align=left;verticalAlign=top;spacingLeft=4;spacingRight=4;overflow=hidden;rotatable=0;points=[[0,0.5],[1,0.5]];portConstraint=eastwest;whiteSpace=wrap;html=1;fontStyle=0" parent="60YrhDgfy5IzH0sJCQRh-33" vertex="1">
          <mxGeometry y="130" width="171" height="26" as="geometry" />
        </mxCell>
        <mxCell id="60YrhDgfy5IzH0sJCQRh-37" value="&amp;lt;&amp;lt;SMC&amp;gt;&amp;gt;&lt;br&gt;Variability" style="swimlane;fontStyle=0;childLayout=stackLayout;horizontal=1;startSize=26;fillColor=#dae8fc;horizontalStack=0;resizeParent=1;resizeParentMax=0;resizeLast=0;collapsible=1;marginBottom=0;whiteSpace=wrap;html=1;strokeColor=#6c8ebf;" parent="1" vertex="1">
          <mxGeometry x="-241.5" y="654.5" width="140" height="103" as="geometry">
            <mxRectangle x="5.5" y="662" width="90" height="41" as="alternateBounds" />
          </mxGeometry>
        </mxCell>
        <mxCell id="60YrhDgfy5IzH0sJCQRh-38" value="+ variable" style="text;strokeColor=none;fillColor=none;align=left;verticalAlign=top;spacingLeft=4;spacingRight=4;overflow=hidden;rotatable=0;points=[[0,0.5],[1,0.5]];portConstraint=eastwest;whiteSpace=wrap;html=1;fontStyle=0" parent="60YrhDgfy5IzH0sJCQRh-37" vertex="1">
          <mxGeometry y="26" width="140" height="26" as="geometry" />
        </mxCell>
        <mxCell id="60YrhDgfy5IzH0sJCQRh-39" value="+ statisticalVariability" style="text;strokeColor=none;fillColor=none;align=left;verticalAlign=top;spacingLeft=4;spacingRight=4;overflow=hidden;rotatable=0;points=[[0,0.5],[1,0.5]];portConstraint=eastwest;whiteSpace=wrap;html=1;fontStyle=0" parent="60YrhDgfy5IzH0sJCQRh-37" vertex="1">
          <mxGeometry y="52" width="140" height="26" as="geometry" />
        </mxCell>
        <mxCell id="60YrhDgfy5IzH0sJCQRh-40" value="+ distribution" style="text;strokeColor=none;fillColor=none;align=left;verticalAlign=top;spacingLeft=4;spacingRight=4;overflow=hidden;rotatable=0;points=[[0,0.5],[1,0.5]];portConstraint=eastwest;whiteSpace=wrap;html=1;fontStyle=0" parent="60YrhDgfy5IzH0sJCQRh-37" vertex="1">
          <mxGeometry y="78" width="140" height="25" as="geometry" />
        </mxCell>
        <mxCell id="60YrhDgfy5IzH0sJCQRh-44" value="" style="endArrow=none;html=1;rounded=0;" parent="1" source="60YrhDgfy5IzH0sJCQRh-37" target="60YrhDgfy5IzH0sJCQRh-33" edge="1">
          <mxGeometry width="50" height="50" relative="1" as="geometry">
            <mxPoint x="-455" y="631.5" as="sourcePoint" />
            <mxPoint x="-405" y="581.5" as="targetPoint" />
          </mxGeometry>
        </mxCell>
        <mxCell id="h16nXOYdxKP09TnJd2EI-7" value="" style="endArrow=none;html=1;rounded=0;edgeStyle=orthogonalEdgeStyle;" parent="1" source="ebb0PjJFtciFHu0TMh4M-18" target="60YrhDgfy5IzH0sJCQRh-14" edge="1">
          <mxGeometry width="50" height="50" relative="1" as="geometry">
            <mxPoint x="-31" y="197.02857142857147" as="sourcePoint" />
            <mxPoint x="-76" y="402" as="targetPoint" />
            <Array as="points">
              <mxPoint x="151" y="188" />
              <mxPoint x="151" y="147" />
            </Array>
          </mxGeometry>
        </mxCell>
        <mxCell id="DfyLgV53_V3v4bxKIMNv-2" value="" style="endArrow=none;html=1;rounded=0;edgeStyle=elbowEdgeStyle;elbow=vertical;" parent="1" source="ebb0PjJFtciFHu0TMh4M-25" edge="1">
          <mxGeometry width="50" height="50" relative="1" as="geometry">
            <mxPoint x="441" y="251" as="sourcePoint" />
            <mxPoint x="364" y="147" as="targetPoint" />
            <Array as="points">
              <mxPoint x="347" y="197" />
            </Array>
          </mxGeometry>
        </mxCell>
        <mxCell id="DfyLgV53_V3v4bxKIMNv-3" value="" style="endArrow=none;html=1;rounded=0;" parent="1" source="inwRCEsUA1p_P1p4tt-E-190" target="ebb0PjJFtciFHu0TMh4M-25" edge="1">
          <mxGeometry width="50" height="50" relative="1" as="geometry">
            <mxPoint x="707.5" y="343" as="sourcePoint" />
            <mxPoint x="555.1052631578946" y="237" as="targetPoint" />
          </mxGeometry>
        </mxCell>
        <mxCell id="DfyLgV53_V3v4bxKIMNv-5" value="" style="endArrow=none;html=1;rounded=0;edgeStyle=orthogonalEdgeStyle;" parent="1" source="ebb0PjJFtciFHu0TMh4M-16" target="60YrhDgfy5IzH0sJCQRh-14" edge="1">
          <mxGeometry width="50" height="50" relative="1" as="geometry">
            <mxPoint x="167" y="248" as="sourcePoint" />
            <mxPoint x="1007" y="435" as="targetPoint" />
          </mxGeometry>
        </mxCell>
        <mxCell id="DfyLgV53_V3v4bxKIMNv-7" value="" style="endArrow=none;html=1;rounded=0;" parent="1" source="60YrhDgfy5IzH0sJCQRh-14" target="ebb0PjJFtciFHu0TMh4M-31" edge="1">
          <mxGeometry width="50" height="50" relative="1" as="geometry">
            <mxPoint x="1345" y="345" as="sourcePoint" />
            <mxPoint x="721" y="143.04761904761904" as="targetPoint" />
          </mxGeometry>
        </mxCell>
        <mxCell id="DfyLgV53_V3v4bxKIMNv-8" value="&lt;div&gt;&amp;lt;&amp;lt;SMC&amp;gt;&amp;gt;&lt;/div&gt;Assets" style="swimlane;fontStyle=0;childLayout=stackLayout;horizontal=1;startSize=26;fillColor=#dae8fc;horizontalStack=0;resizeParent=1;resizeParentMax=0;resizeLast=0;collapsible=1;marginBottom=0;whiteSpace=wrap;html=1;strokeColor=#6c8ebf;" parent="1" vertex="1">
          <mxGeometry x="1.5" y="301" width="140" height="156" as="geometry">
            <mxRectangle x="26.5" y="321" width="90" height="41" as="alternateBounds" />
          </mxGeometry>
        </mxCell>
        <mxCell id="DfyLgV53_V3v4bxKIMNv-17" value="&lt;span style=&quot;font-weight: normal;&quot;&gt;+ assetId&lt;/span&gt;" style="text;strokeColor=none;fillColor=none;align=left;verticalAlign=top;spacingLeft=4;spacingRight=4;overflow=hidden;rotatable=0;points=[[0,0.5],[1,0.5]];portConstraint=eastwest;whiteSpace=wrap;html=1;fontStyle=1" parent="DfyLgV53_V3v4bxKIMNv-8" vertex="1">
          <mxGeometry y="26" width="140" height="26" as="geometry" />
        </mxCell>
        <mxCell id="DfyLgV53_V3v4bxKIMNv-12" value="&lt;span style=&quot;&quot;&gt;+ mttr&lt;/span&gt;" style="text;strokeColor=none;fillColor=none;align=left;verticalAlign=top;spacingLeft=4;spacingRight=4;overflow=hidden;rotatable=0;points=[[0,0.5],[1,0.5]];portConstraint=eastwest;whiteSpace=wrap;html=1;fontStyle=0" parent="DfyLgV53_V3v4bxKIMNv-8" vertex="1">
          <mxGeometry y="52" width="140" height="26" as="geometry" />
        </mxCell>
        <mxCell id="DfyLgV53_V3v4bxKIMNv-13" value="+ mtbf" style="text;strokeColor=none;fillColor=none;align=left;verticalAlign=top;spacingLeft=4;spacingRight=4;overflow=hidden;rotatable=0;points=[[0,0.5],[1,0.5]];portConstraint=eastwest;whiteSpace=wrap;html=1;fontStyle=0" parent="DfyLgV53_V3v4bxKIMNv-8" vertex="1">
          <mxGeometry y="78" width="140" height="26" as="geometry" />
        </mxCell>
        <mxCell id="DfyLgV53_V3v4bxKIMNv-14" value="+ failureRate" style="text;strokeColor=none;fillColor=none;align=left;verticalAlign=top;spacingLeft=4;spacingRight=4;overflow=hidden;rotatable=0;points=[[0,0.5],[1,0.5]];portConstraint=eastwest;whiteSpace=wrap;html=1;fontStyle=0" parent="DfyLgV53_V3v4bxKIMNv-8" vertex="1">
          <mxGeometry y="104" width="140" height="26" as="geometry" />
        </mxCell>
        <mxCell id="DfyLgV53_V3v4bxKIMNv-15" value="+ repairRate" style="text;strokeColor=none;fillColor=none;align=left;verticalAlign=top;spacingLeft=4;spacingRight=4;overflow=hidden;rotatable=0;points=[[0,0.5],[1,0.5]];portConstraint=eastwest;whiteSpace=wrap;html=1;fontStyle=0" parent="DfyLgV53_V3v4bxKIMNv-8" vertex="1">
          <mxGeometry y="130" width="140" height="26" as="geometry" />
        </mxCell>
        <mxCell id="DfyLgV53_V3v4bxKIMNv-20" value="" style="endArrow=block;html=1;rounded=0;edgeStyle=orthogonalEdgeStyle;endFill=0;" parent="1" source="inwRCEsUA1p_P1p4tt-E-491" target="DfyLgV53_V3v4bxKIMNv-8" edge="1">
          <mxGeometry width="50" height="50" relative="1" as="geometry">
            <mxPoint x="553" y="744.5" as="sourcePoint" />
            <mxPoint x="603" y="694.5" as="targetPoint" />
            <Array as="points">
              <mxPoint x="276" y="391.5" />
            </Array>
          </mxGeometry>
        </mxCell>
        <mxCell id="DfyLgV53_V3v4bxKIMNv-21" value="" style="endArrow=block;html=1;rounded=0;edgeStyle=orthogonalEdgeStyle;endFill=0;" parent="1" source="inwRCEsUA1p_P1p4tt-E-460" target="DfyLgV53_V3v4bxKIMNv-8" edge="1">
          <mxGeometry width="50" height="50" relative="1" as="geometry">
            <mxPoint x="336" y="560.5" as="sourcePoint" />
            <mxPoint x="625" y="444.5" as="targetPoint" />
            <Array as="points">
              <mxPoint x="276" y="328.5" />
            </Array>
          </mxGeometry>
        </mxCell>
        <mxCell id="DfyLgV53_V3v4bxKIMNv-22" value="" style="endArrow=block;html=1;rounded=0;endFill=0;" parent="1" source="inwRCEsUA1p_P1p4tt-E-434" target="DfyLgV53_V3v4bxKIMNv-8" edge="1">
          <mxGeometry width="50" height="50" relative="1" as="geometry">
            <mxPoint x="728" y="860.5" as="sourcePoint" />
            <mxPoint x="796" y="754.5" as="targetPoint" />
          </mxGeometry>
        </mxCell>
        <mxCell id="DfyLgV53_V3v4bxKIMNv-23" value="" style="endArrow=none;html=1;rounded=0;edgeStyle=orthogonalEdgeStyle;" parent="1" source="inwRCEsUA1p_P1p4tt-E-328" target="inwRCEsUA1p_P1p4tt-E-193" edge="1">
          <mxGeometry width="50" height="50" relative="1" as="geometry">
            <mxPoint x="-500" y="547.5" as="sourcePoint" />
            <mxPoint x="-450" y="497.5" as="targetPoint" />
          </mxGeometry>
        </mxCell>
        <mxCell id="DfyLgV53_V3v4bxKIMNv-24" value="" style="endArrow=none;html=1;rounded=0;edgeStyle=orthogonalEdgeStyle;" parent="1" source="60YrhDgfy5IzH0sJCQRh-33" target="inwRCEsUA1p_P1p4tt-E-193" edge="1">
          <mxGeometry width="50" height="50" relative="1" as="geometry">
            <mxPoint x="-500" y="547.5" as="sourcePoint" />
            <mxPoint x="-450" y="497.5" as="targetPoint" />
          </mxGeometry>
        </mxCell>
        <mxCell id="DfyLgV53_V3v4bxKIMNv-25" value="" style="endArrow=none;html=1;rounded=0;edgeStyle=orthogonalEdgeStyle;" parent="1" source="inwRCEsUA1p_P1p4tt-E-193" target="60YrhDgfy5IzH0sJCQRh-14" edge="1">
          <mxGeometry width="50" height="50" relative="1" as="geometry">
            <mxPoint x="-367" y="358" as="sourcePoint" />
            <mxPoint x="-317" y="308" as="targetPoint" />
            <Array as="points">
              <mxPoint x="-397" y="147" />
            </Array>
          </mxGeometry>
        </mxCell>
        <mxCell id="DfyLgV53_V3v4bxKIMNv-26" value="" style="endArrow=none;html=1;rounded=0;" parent="1" source="DfyLgV53_V3v4bxKIMNv-8" target="ebb0PjJFtciFHu0TMh4M-16" edge="1">
          <mxGeometry width="50" height="50" relative="1" as="geometry">
            <mxPoint x="639" y="299.5" as="sourcePoint" />
            <mxPoint x="112" y="273" as="targetPoint" />
          </mxGeometry>
        </mxCell>
        <mxCell id="DfyLgV53_V3v4bxKIMNv-35" value="&lt;div&gt;&amp;lt;&amp;lt;SMC&amp;gt;&amp;gt;&lt;/div&gt;&lt;div&gt;Market_Analysis&lt;/div&gt;" style="swimlane;fontStyle=0;childLayout=stackLayout;horizontal=1;startSize=26;fillColor=#dae8fc;horizontalStack=0;resizeParent=1;resizeParentMax=0;resizeLast=0;collapsible=1;marginBottom=0;whiteSpace=wrap;html=1;strokeColor=#6c8ebf;" parent="1" vertex="1">
          <mxGeometry x="842" y="301" width="280" height="114" as="geometry">
            <mxRectangle x="869" y="313.5" width="122" height="41" as="alternateBounds" />
          </mxGeometry>
        </mxCell>
        <mxCell id="DfyLgV53_V3v4bxKIMNv-38" value="+ demandQuantity" style="text;strokeColor=none;fillColor=none;align=left;verticalAlign=top;spacingLeft=4;spacingRight=4;overflow=hidden;rotatable=0;points=[[0,0.5],[1,0.5]];portConstraint=eastwest;whiteSpace=wrap;html=1;fontStyle=0" parent="DfyLgV53_V3v4bxKIMNv-35" vertex="1">
          <mxGeometry y="26" width="280" height="22" as="geometry" />
        </mxCell>
        <mxCell id="DfyLgV53_V3v4bxKIMNv-39" value="+ productPrice" style="text;strokeColor=none;fillColor=none;align=left;verticalAlign=top;spacingLeft=4;spacingRight=4;overflow=hidden;rotatable=0;points=[[0,0.5],[1,0.5]];portConstraint=eastwest;whiteSpace=wrap;html=1;fontStyle=0" parent="DfyLgV53_V3v4bxKIMNv-35" vertex="1">
          <mxGeometry y="48" width="280" height="22" as="geometry" />
        </mxCell>
        <mxCell id="DfyLgV53_V3v4bxKIMNv-40" value="+ supplyMarketCapacity" style="text;strokeColor=none;fillColor=none;align=left;verticalAlign=top;spacingLeft=4;spacingRight=4;overflow=hidden;rotatable=0;points=[[0,0.5],[1,0.5]];portConstraint=eastwest;whiteSpace=wrap;html=1;fontStyle=0" parent="DfyLgV53_V3v4bxKIMNv-35" vertex="1">
          <mxGeometry y="70" width="280" height="22" as="geometry" />
        </mxCell>
        <mxCell id="DfyLgV53_V3v4bxKIMNv-41" value="+ supplyMarketPrice" style="text;strokeColor=none;fillColor=none;align=left;verticalAlign=top;spacingLeft=4;spacingRight=4;overflow=hidden;rotatable=0;points=[[0,0.5],[1,0.5]];portConstraint=eastwest;whiteSpace=wrap;html=1;fontStyle=0" parent="DfyLgV53_V3v4bxKIMNv-35" vertex="1">
          <mxGeometry y="92" width="280" height="22" as="geometry" />
        </mxCell>
        <mxCell id="DfyLgV53_V3v4bxKIMNv-46" value="&lt;div&gt;&amp;lt;&amp;lt;SMC&amp;gt;&amp;gt;&lt;/div&gt;&lt;div&gt;Production_Site&lt;/div&gt;" style="swimlane;fontStyle=0;childLayout=stackLayout;horizontal=1;startSize=26;fillColor=#dae8fc;horizontalStack=0;resizeParent=1;resizeParentMax=0;resizeLast=0;collapsible=1;marginBottom=0;whiteSpace=wrap;html=1;strokeColor=#6c8ebf;" parent="1" vertex="1">
          <mxGeometry x="842" y="462" width="280" height="167" as="geometry">
            <mxRectangle x="939" y="497" width="118" height="41" as="alternateBounds" />
          </mxGeometry>
        </mxCell>
        <mxCell id="DfyLgV53_V3v4bxKIMNv-47" value="&lt;span style=&quot;font-weight: normal;&quot;&gt;+ siteId&lt;/span&gt;" style="text;strokeColor=none;fillColor=none;align=left;verticalAlign=top;spacingLeft=4;spacingRight=4;overflow=hidden;rotatable=0;points=[[0,0.5],[1,0.5]];portConstraint=eastwest;whiteSpace=wrap;html=1;fontStyle=1" parent="DfyLgV53_V3v4bxKIMNv-46" vertex="1">
          <mxGeometry y="26" width="280" height="26" as="geometry" />
        </mxCell>
        <mxCell id="DfyLgV53_V3v4bxKIMNv-48" value="+ productivity" style="text;strokeColor=none;fillColor=none;align=left;verticalAlign=top;spacingLeft=4;spacingRight=4;overflow=hidden;rotatable=0;points=[[0,0.5],[1,0.5]];portConstraint=eastwest;whiteSpace=wrap;html=1;fontStyle=0" parent="DfyLgV53_V3v4bxKIMNv-46" vertex="1">
          <mxGeometry y="52" width="280" height="23" as="geometry" />
        </mxCell>
        <mxCell id="DfyLgV53_V3v4bxKIMNv-49" value="+ operationalCost" style="text;strokeColor=none;fillColor=none;align=left;verticalAlign=top;spacingLeft=4;spacingRight=4;overflow=hidden;rotatable=0;points=[[0,0.5],[1,0.5]];portConstraint=eastwest;whiteSpace=wrap;html=1;fontStyle=0" parent="DfyLgV53_V3v4bxKIMNv-46" vertex="1">
          <mxGeometry y="75" width="280" height="23" as="geometry" />
        </mxCell>
        <mxCell id="DfyLgV53_V3v4bxKIMNv-50" value="+ energyCost" style="text;strokeColor=none;fillColor=none;align=left;verticalAlign=top;spacingLeft=4;spacingRight=4;overflow=hidden;rotatable=0;points=[[0,0.5],[1,0.5]];portConstraint=eastwest;whiteSpace=wrap;html=1;fontStyle=0" parent="DfyLgV53_V3v4bxKIMNv-46" vertex="1">
          <mxGeometry y="98" width="280" height="23" as="geometry" />
        </mxCell>
        <mxCell id="DfyLgV53_V3v4bxKIMNv-51" value="+ inventoryCapacity" style="text;strokeColor=none;fillColor=none;align=left;verticalAlign=top;spacingLeft=4;spacingRight=4;overflow=hidden;rotatable=0;points=[[0,0.5],[1,0.5]];portConstraint=eastwest;whiteSpace=wrap;html=1;fontStyle=0" parent="DfyLgV53_V3v4bxKIMNv-46" vertex="1">
          <mxGeometry y="121" width="280" height="23" as="geometry" />
        </mxCell>
        <mxCell id="DfyLgV53_V3v4bxKIMNv-52" value="+ inventoryCost" style="text;strokeColor=none;fillColor=none;align=left;verticalAlign=top;spacingLeft=4;spacingRight=4;overflow=hidden;rotatable=0;points=[[0,0.5],[1,0.5]];portConstraint=eastwest;whiteSpace=wrap;html=1;fontStyle=0" parent="DfyLgV53_V3v4bxKIMNv-46" vertex="1">
          <mxGeometry y="144" width="280" height="23" as="geometry" />
        </mxCell>
        <mxCell id="DfyLgV53_V3v4bxKIMNv-55" value="&lt;div&gt;&amp;lt;&amp;lt;SMC&amp;gt;&amp;gt;&lt;/div&gt;&lt;div&gt;Logistics&lt;/div&gt;" style="swimlane;fontStyle=0;childLayout=stackLayout;horizontal=1;startSize=26;fillColor=#dae8fc;horizontalStack=0;resizeParent=1;resizeParentMax=0;resizeLast=0;collapsible=1;marginBottom=0;whiteSpace=wrap;html=1;strokeColor=#6c8ebf;" parent="1" vertex="1">
          <mxGeometry x="842" y="195" width="280" height="92" as="geometry">
            <mxRectangle x="809" y="291.5" width="90" height="41" as="alternateBounds" />
          </mxGeometry>
        </mxCell>
        <mxCell id="ebb0PjJFtciFHu0TMh4M-30" value="+ transportationId" style="text;strokeColor=none;fillColor=none;align=left;verticalAlign=top;spacingLeft=4;spacingRight=4;overflow=hidden;rotatable=0;points=[[0,0.5],[1,0.5]];portConstraint=eastwest;whiteSpace=wrap;html=1;fontStyle=0" parent="DfyLgV53_V3v4bxKIMNv-55" vertex="1">
          <mxGeometry y="26" width="280" height="22" as="geometry" />
        </mxCell>
        <mxCell id="DfyLgV53_V3v4bxKIMNv-56" value="+ transportationCapacity" style="text;strokeColor=none;fillColor=none;align=left;verticalAlign=top;spacingLeft=4;spacingRight=4;overflow=hidden;rotatable=0;points=[[0,0.5],[1,0.5]];portConstraint=eastwest;whiteSpace=wrap;html=1;fontStyle=0" parent="DfyLgV53_V3v4bxKIMNv-55" vertex="1">
          <mxGeometry y="48" width="280" height="22" as="geometry" />
        </mxCell>
        <mxCell id="DfyLgV53_V3v4bxKIMNv-57" value="+ transportationCost" style="text;strokeColor=none;fillColor=none;align=left;verticalAlign=top;spacingLeft=4;spacingRight=4;overflow=hidden;rotatable=0;points=[[0,0.5],[1,0.5]];portConstraint=eastwest;whiteSpace=wrap;html=1;fontStyle=0" parent="DfyLgV53_V3v4bxKIMNv-55" vertex="1">
          <mxGeometry y="70" width="280" height="22" as="geometry" />
        </mxCell>
        <mxCell id="DfyLgV53_V3v4bxKIMNv-60" value="" style="endArrow=none;html=1;rounded=0;edgeStyle=orthogonalEdgeStyle;" parent="1" source="DfyLgV53_V3v4bxKIMNv-46" target="ebb0PjJFtciFHu0TMh4M-31" edge="1">
          <mxGeometry width="50" height="50" relative="1" as="geometry">
            <mxPoint x="1604" y="442" as="sourcePoint" />
            <mxPoint x="755.0476190476188" y="168" as="targetPoint" />
            <Array as="points">
              <mxPoint x="755" y="518" />
            </Array>
          </mxGeometry>
        </mxCell>
        <mxCell id="DfyLgV53_V3v4bxKIMNv-61" value="" style="endArrow=none;html=1;rounded=0;edgeStyle=orthogonalEdgeStyle;" parent="1" source="DfyLgV53_V3v4bxKIMNv-35" target="ebb0PjJFtciFHu0TMh4M-31" edge="1">
          <mxGeometry width="50" height="50" relative="1" as="geometry">
            <mxPoint x="1604" y="442" as="sourcePoint" />
            <mxPoint x="755.0476190476188" y="168" as="targetPoint" />
            <Array as="points">
              <mxPoint x="755" y="334" />
            </Array>
          </mxGeometry>
        </mxCell>
        <mxCell id="DfyLgV53_V3v4bxKIMNv-62" value="" style="endArrow=none;html=1;rounded=0;edgeStyle=orthogonalEdgeStyle;" parent="1" source="DfyLgV53_V3v4bxKIMNv-55" target="ebb0PjJFtciFHu0TMh4M-31" edge="1">
          <mxGeometry width="50" height="50" relative="1" as="geometry">
            <mxPoint x="1604" y="442" as="sourcePoint" />
            <mxPoint x="755.0476190476188" y="168" as="targetPoint" />
            <Array as="points">
              <mxPoint x="755" y="241" />
            </Array>
          </mxGeometry>
        </mxCell>
        <mxCell id="DfyLgV53_V3v4bxKIMNv-63" value="" style="endArrow=none;html=1;rounded=0;edgeStyle=orthogonalEdgeStyle;" parent="1" source="inwRCEsUA1p_P1p4tt-E-277" target="60YrhDgfy5IzH0sJCQRh-14" edge="1">
          <mxGeometry width="50" height="50" relative="1" as="geometry">
            <mxPoint x="-588" y="304" as="sourcePoint" />
            <mxPoint x="-538" y="254" as="targetPoint" />
            <Array as="points">
              <mxPoint x="265" y="-20" />
            </Array>
          </mxGeometry>
        </mxCell>
        <mxCell id="ebb0PjJFtciFHu0TMh4M-5" value="«SMC»&lt;br&gt;value" style="html=1;whiteSpace=wrap;fillColor=#dce8fd;" parent="1" vertex="1">
          <mxGeometry x="-177" y="234.5" width="110" height="50" as="geometry" />
        </mxCell>
        <mxCell id="ebb0PjJFtciFHu0TMh4M-6" value="«SMC»&lt;br&gt;description" style="html=1;whiteSpace=wrap;fillColor=#dce8fd;" parent="1" vertex="1">
          <mxGeometry x="-226.5" y="304.5" width="110" height="50" as="geometry" />
        </mxCell>
        <mxCell id="ebb0PjJFtciFHu0TMh4M-9" style="rounded=0;orthogonalLoop=1;jettySize=auto;html=1;endArrow=diamond;endFill=1;edgeStyle=elbowEdgeStyle;" parent="1" source="ebb0PjJFtciFHu0TMh4M-5" target="ebb0PjJFtciFHu0TMh4M-18" edge="1">
          <mxGeometry relative="1" as="geometry">
            <mxPoint x="310" y="405.5" as="sourcePoint" />
            <mxPoint x="-159" y="223" as="targetPoint" />
          </mxGeometry>
        </mxCell>
        <mxCell id="ebb0PjJFtciFHu0TMh4M-11" style="rounded=0;orthogonalLoop=1;jettySize=auto;html=1;endArrow=diamond;endFill=1;edgeStyle=elbowEdgeStyle;" parent="1" source="ebb0PjJFtciFHu0TMh4M-6" target="ebb0PjJFtciFHu0TMh4M-18" edge="1">
          <mxGeometry relative="1" as="geometry">
            <mxPoint x="330" y="425.5" as="sourcePoint" />
            <mxPoint x="-73" y="223" as="targetPoint" />
            <Array as="points">
              <mxPoint x="-227" y="263" />
            </Array>
          </mxGeometry>
        </mxCell>
        <mxCell id="ebb0PjJFtciFHu0TMh4M-16" value="&amp;lt;&amp;lt;SMC&amp;gt;&amp;gt;&lt;br&gt;Ressource&amp;nbsp;" style="swimlane;fontStyle=0;childLayout=stackLayout;horizontal=1;startSize=26;fillColor=#dae8fc;horizontalStack=0;resizeParent=1;resizeParentMax=0;resizeLast=0;collapsible=1;marginBottom=0;whiteSpace=wrap;html=1;strokeColor=#6c8ebf;" parent="1" vertex="1">
          <mxGeometry x="-14" y="209" width="171" height="78" as="geometry">
            <mxRectangle x="89" y="187.5" width="113" height="41" as="alternateBounds" />
          </mxGeometry>
        </mxCell>
        <mxCell id="ebb0PjJFtciFHu0TMh4M-17" value="&lt;span style=&quot;font-weight: normal;&quot;&gt;+ incident: &amp;lt;&amp;lt;Incident&amp;gt;&amp;gt;&lt;/span&gt;" style="text;strokeColor=none;fillColor=none;align=left;verticalAlign=top;spacingLeft=4;spacingRight=4;overflow=hidden;rotatable=0;points=[[0,0.5],[1,0.5]];portConstraint=eastwest;whiteSpace=wrap;html=1;fontStyle=1" parent="ebb0PjJFtciFHu0TMh4M-16" vertex="1">
          <mxGeometry y="26" width="171" height="26" as="geometry" />
        </mxCell>
        <mxCell id="ebb0PjJFtciFHu0TMh4M-19" value="&lt;span style=&quot;font-weight: normal;&quot;&gt;+ Shopfloor: &amp;lt;&amp;lt;Shopfloor&amp;gt;&amp;gt;&lt;/span&gt;" style="text;strokeColor=none;fillColor=none;align=left;verticalAlign=top;spacingLeft=4;spacingRight=4;overflow=hidden;rotatable=0;points=[[0,0.5],[1,0.5]];portConstraint=eastwest;whiteSpace=wrap;html=1;fontStyle=1" parent="ebb0PjJFtciFHu0TMh4M-16" vertex="1">
          <mxGeometry y="52" width="171" height="26" as="geometry" />
        </mxCell>
        <mxCell id="ebb0PjJFtciFHu0TMh4M-18" value="«SMC»&lt;br&gt;ResilienceKPI" style="html=1;whiteSpace=wrap;fillColor=#dce8fd;" parent="1" vertex="1">
          <mxGeometry x="-177" y="163" width="110" height="50" as="geometry" />
        </mxCell>
        <mxCell id="ebb0PjJFtciFHu0TMh4M-20" value="&amp;lt;&amp;lt;SMC&amp;gt;&amp;gt;&lt;br&gt;criticalComponent" style="swimlane;fontStyle=0;childLayout=stackLayout;horizontal=1;startSize=26;fillColor=#dae8fc;horizontalStack=0;resizeParent=1;resizeParentMax=0;resizeLast=0;collapsible=1;marginBottom=0;whiteSpace=wrap;html=1;strokeColor=#6c8ebf;" parent="1" vertex="1">
          <mxGeometry x="-54.5" y="636" width="252" height="78" as="geometry">
            <mxRectangle x="31.5" y="498" width="80" height="26" as="alternateBounds" />
          </mxGeometry>
        </mxCell>
        <mxCell id="ebb0PjJFtciFHu0TMh4M-21" value="&lt;span style=&quot;font-weight: normal;&quot;&gt;+ componentDiagnosis: &amp;lt;&amp;lt;Diagnosis&amp;gt;&amp;gt;&lt;/span&gt;" style="text;strokeColor=none;fillColor=none;align=left;verticalAlign=top;spacingLeft=4;spacingRight=4;overflow=hidden;rotatable=0;points=[[0,0.5],[1,0.5]];portConstraint=eastwest;whiteSpace=wrap;html=1;fontStyle=1" parent="ebb0PjJFtciFHu0TMh4M-20" vertex="1">
          <mxGeometry y="26" width="252" height="26" as="geometry" />
        </mxCell>
        <mxCell id="ebb0PjJFtciFHu0TMh4M-22" value="+ componentId" style="text;strokeColor=none;fillColor=none;align=left;verticalAlign=top;spacingLeft=4;spacingRight=4;overflow=hidden;rotatable=0;points=[[0,0.5],[1,0.5]];portConstraint=eastwest;whiteSpace=wrap;html=1;fontStyle=0" parent="ebb0PjJFtciFHu0TMh4M-20" vertex="1">
          <mxGeometry y="52" width="252" height="26" as="geometry" />
        </mxCell>
        <mxCell id="ebb0PjJFtciFHu0TMh4M-24" value="" style="endArrow=block;html=1;rounded=0;endFill=0;" parent="1" source="ebb0PjJFtciFHu0TMh4M-20" target="inwRCEsUA1p_P1p4tt-E-434" edge="1">
          <mxGeometry width="50" height="50" relative="1" as="geometry">
            <mxPoint x="104" y="507" as="sourcePoint" />
            <mxPoint x="96" y="467" as="targetPoint" />
          </mxGeometry>
        </mxCell>
        <mxCell id="ebb0PjJFtciFHu0TMh4M-25" value="&amp;lt;&amp;lt;SMC&amp;gt;&amp;gt;&lt;div&gt;Shopfloor&lt;/div&gt;" style="swimlane;fontStyle=0;childLayout=stackLayout;horizontal=1;startSize=26;fillColor=#dae8fc;horizontalStack=0;resizeParent=1;resizeParentMax=0;resizeLast=0;collapsible=1;marginBottom=0;whiteSpace=wrap;html=1;strokeColor=#6c8ebf;" parent="1" vertex="1">
          <mxGeometry x="420.5" y="246" width="245" height="52" as="geometry">
            <mxRectangle x="290" y="309.5" width="126" height="41" as="alternateBounds" />
          </mxGeometry>
        </mxCell>
        <mxCell id="ebb0PjJFtciFHu0TMh4M-26" value="+ ProductionSite: &amp;lt;&amp;lt;ProductionSite&amp;gt;&amp;gt;" style="text;strokeColor=none;fillColor=none;align=left;verticalAlign=top;spacingLeft=4;spacingRight=4;overflow=hidden;rotatable=0;points=[[0,0.5],[1,0.5]];portConstraint=eastwest;whiteSpace=wrap;html=1;" parent="ebb0PjJFtciFHu0TMh4M-25" vertex="1">
          <mxGeometry y="26" width="245" height="26" as="geometry" />
        </mxCell>
        <mxCell id="ebb0PjJFtciFHu0TMh4M-31" value="&amp;lt;&amp;lt;SMC&amp;gt;&amp;gt;&lt;div&gt;Supply_Chain&lt;/div&gt;" style="swimlane;fontStyle=0;childLayout=stackLayout;horizontal=1;startSize=26;fillColor=#dae8fc;horizontalStack=0;resizeParent=1;resizeParentMax=0;resizeLast=0;collapsible=1;marginBottom=0;whiteSpace=wrap;html=1;strokeColor=#6c8ebf;" parent="1" vertex="1">
          <mxGeometry x="662" y="108" width="245" height="78" as="geometry">
            <mxRectangle x="290" y="309.5" width="126" height="41" as="alternateBounds" />
          </mxGeometry>
        </mxCell>
        <mxCell id="ebb0PjJFtciFHu0TMh4M-32" value="+ SupplyPlan" style="text;strokeColor=none;fillColor=none;align=left;verticalAlign=top;spacingLeft=4;spacingRight=4;overflow=hidden;rotatable=0;points=[[0,0.5],[1,0.5]];portConstraint=eastwest;whiteSpace=wrap;html=1;" parent="ebb0PjJFtciFHu0TMh4M-31" vertex="1">
          <mxGeometry y="26" width="245" height="26" as="geometry" />
        </mxCell>
        <mxCell id="ebb0PjJFtciFHu0TMh4M-33" value="+ incident: &amp;lt;&amp;lt;Incident&amp;gt;&amp;gt;" style="text;strokeColor=none;fillColor=none;align=left;verticalAlign=top;spacingLeft=4;spacingRight=4;overflow=hidden;rotatable=0;points=[[0,0.5],[1,0.5]];portConstraint=eastwest;whiteSpace=wrap;html=1;" parent="ebb0PjJFtciFHu0TMh4M-31" vertex="1">
          <mxGeometry y="52" width="245" height="26" as="geometry" />
        </mxCell>
      </root>
    </mxGraphModel>
  </diagram>
</mxfile>
